<?xml version="1.0" encoding="utf-8"?>
<svg viewBox="73.3074 16.6679 853.3852 966.6641" width="853.3852" height="966.6641" xmlns="http://www.w3.org/2000/svg">
  <g transform="matrix(1, 0, 0, 1, 0, 1.4210854715202004e-14)">
    <path d="M314.9616089,722.7399292c39.4853516,27.7752686,84.3540649,53.0511475,131.2606201,65.5985718   c48.6008911,13.0007324,101.9697876,8.9161377,148.2674561-10.6541748   c21.708374-9.1762695,44.045166-23.9578247,68.0825195-25.4291382c5.9522705-0.3643188,11.2075195,1.0893555,16.774292-1.2095947   c5.5643921-2.2979736,10.9547729-6.4571533,16.1343994-9.5863647   c10.5523071-6.3753662,21.1068726-12.8025513,31.2617188-19.8006592   c18.0687866-12.4517212,24.4001465-27.7019043,24.3031616-49.2195435   c-0.1229248-27.2755737-2.9086304-54.6802979-5.986084-81.7609863   c-5.6229858-49.4802856-9.4946289-105.1833496-32.1292725-150.3786621   c-8.3936157-16.7598877-20.7424316-31.215271-36.2755737-41.7487183   c-7.677063-5.2059937-15.9988403-9.4289551-24.6333618-12.7992554c-8.0292358-3.1340332-21.9981689-9.6713257-30.534729-6.1504517   c-4.2459106,3.7755127-3.6170654,13.6570435-4.1824951,18.6390991c-0.7543335,6.6446533-1.4191284,13.2763062-1.6641235,19.9614258   c-0.5443115,14.8520508-0.5730591,29.7412109-0.7849731,44.6010132   c-0.4119873,28.8997803-0.9811401,57.7879028-1.6588745,86.6821899   c-1.3239136,56.4453125,1.4112549,113.9129028-15.1679077,168.6138916   c6.2562866-5.1008301,13.923584-10.0297241,19.6192017-15.718689c5.3831787-5.3770752,5.8290405-12.0597534,6.7358398-19.286499   c2.3319092-18.5859375,3.7973022-37.1273193,5.1542358-55.8035889c0.8450928,0.015564,1.6902466,0.03125,2.5353394,0.0467529   c0,20.8464966,0,41.6929321,0,64.02948c5.4386597-4.0135498,9.0622559-6.6875,12.6018066-9.2996216   c-11.145874-40.5806274-9.0057373-82.8544312-8.5761108-124.6383057   c0.2234497-21.7296143,0.7721558-43.4559326,1.663269-65.1685791c0.7835083-19.0898438-0.2087402-40.4255981,8.567627-57.9807739   c-6.1098633,76.8724976,7.8673706,151.4243774,23.5975342,226.1516113   c13.2186279-0.8815918,25.5673218-3.0135498,38.1307983-0.7351074c-1.286377,5.5842896-17.2416382,9.9976807-21.9181519,12.6213379   c-8.8153076,4.9456177-17.2949219,10.4623413-25.6051636,16.2091675   c-17.5858765,12.1610107-34.026001,25.7299194-50.5853271,39.2268066   c-6.930603,5.6488647-14.1049805,13.3687744-23.355835,14.7614136c-9.8085938,1.4768066-20.4507446-3.0056763-30.3684692-3.3395996   c-16.2774658-0.5480347-37.9515381,11.3019409-50.7825928-3.0509644   c-0.8004761,22.5166626,18.9243774,20.5161133,29.3681641,28.2825928   c-12.1261597,14.668335-56.0081787,13.7957764-62.4294434-1.1745605   c12.8793945-5.2327881,27.463562-9.1591797,27.3696899-28.0535889c-7.496521,10.9179077-19.4456177,5.0452881-30.0460205,4.4758301   c-13.0882568-0.703125-26.0941162,3.4338989-38.7084961,6.3677979   c-37.4030762-29.536438-68.4446411-65.8470459-105.458252-96.4561768c7.446106,0,14.8922119,0,22.1286621,0   c-1.3327637-45.4075928,10.6241455-88.1497803,16.8302002-134.1287231   c5.3533325,13.7675171,4.1298828,36.0488281,14.2321167,47.1940308c9.5928345,10.583313,34.8442383,7.9042969,47.7625732,6.8099976   c33.2803955-2.8191528,64.6002808-19.3809204,83.8213501-47.0123291   c19.5905762-28.1625977,23.9084473-63.0949707,31.1231079-95.7941284   c2.1083374-9.5557861,4.3342896-19.0882568,6.9135132-28.5292358c2.4123535-8.8301392,7.8516235-18.9914551,8.9987793-28.0012817   c1.1436157-8.9815063-3.593811-20.0921021-5.6442261-28.7636719c-2.4051514-10.1727295-4.7902222-20.3501587-7.189209-30.524353   c11.6985474-12.2861328,19.4830322-26.8152466,26.0673828-42.3756104   c1.0657959,9.460144-3.7283325,38.2473755,13.7579346,35.1610107c14.8582153-2.6224976,5.208252-24.5418701,4.6013794-34.0204468   c-1.083374-16.923584,2.5819092-33.1688843,9.8395996-48.4146118c7.1660767-15.0535278,6.8145752-34.3762817-14.0201416-22.9332886   c-8.3467407-51.8214722-47.3706055-66.5142822-88.0408936-45.5444336   c-20.4309082-9.0220337-42.5172119-13.8370361-62.0712891-0.0302124   c-14.980957,10.5778809-21.3937988,27.8021851-22.2166138,45.6213379   c-5.9039307-2.6662598-13.1690063-7.2539062-17.8557129,0.3222046c-3.4411621,5.5626831-0.3969116,13.9274292,1.8696899,19.3019409   c6.7722168,16.0581055,14.2920532,29.7922974,13.6952515,47.8775024   c-0.3358154,10.1771851-10.8082275,36.2127686,5.9071045,37.8885498   c15.7182617,1.5757446,11.012146-18.9923096,14.2400513-28.1696167   c2.9976196,6.7218628,6.4622192,13.2243042,10.4671631,19.3997192c3.0918579,4.767334,8.4509888,9.5795288,10.8539429,14.6730957   c4.0367432,8.5567017,0.5228882,21.7700806-3.4659424,29.9294434   c-10.8187256,22.1306152-37.0391846,27.6378174-58.3638306,34.9788818   c-22.0140381,7.5783691-44.2565308,13.9420166-62.7022705,28.7861938   c-15.5305176,12.4981079-26.8061523,29.2861328-33.2750244,48.0905151   c-7.8607178,22.8504028-10.2714844,48.166687-13.4143677,72.015564c-3.5214844,26.722168-5.963623,53.5844727-7.4187622,80.4975586   c-1.2699585,23.4866333-6.1094971,52.2741699,1.5858765,74.9780884   C281.3585815,698.9202271,298.3361206,711.0449219,314.9616089,722.7399292z M572.3457031,217.2567749   c-20.5625-7.9734497-40.9362793-8.8082886-61.4834595-0.3059692   C526.071167,200.0630493,561.2559814,190.619812,572.3457031,217.2567749z M423.8901367,218.6802979   c6.4512939-30.1430664,46.6331177-16.409668,61.097168-1.6848755   C464.6166382,209.7758789,444.541748,207.8783569,423.8901367,218.6802979z" style="fill: rgb(255, 255, 255);"/>
    <path d="M895.3831177,930.2206421c-10.8878784-3.1802368-30.0960083-4.4179077-38.2184448-13.06604   c15.7059937-9.6879272,30.2583618-19.4692993,38.3068848-36.795105c7.5935059-16.3463745,8.4395752-36.4125366,2.6474609-53.43927   c-14.369873-42.2426758-60.6853027-52.7134399-100.1679688-52.5248413   c8.8910522,20.1844482-23.0262451,27.2001343-36.1808472,27.359314   c-22.5061646,0.2723389-46.1646729-0.9425659-68.0883789,5.0761719   c26.3051758,17.8138428,54.1016846,27.1229858,83.8010254,31.694397   c-23.5726318,8.7207031-57.5542603-3.4534302-79.5924072-12.418457   c-10.2064819-4.1519775-22.4225464-13.6243896-33.4888916-13.7226562   c-12.9685059-0.1152954-28.6372681,5.5158691-40.723877,9.8985596   c52.2288818,32.1304932,105.4501343,59.6594238,168.9572144,57.1445923   c-17.3366089,10.7697754-46.9171143,4.8570557-65.8729858,1.5267334   c-23.5167847-4.1316528-46.2944946-11.9354858-67.8682251-22.0909424   c-19.4407959-9.1514282-39.854126-23.9909058-62.012085-24.7362671   c-17.8157959-0.5993652-37.2964478,8.3883667-45.8833008,24.5303955   c10.0073242,21.9996338,27.3493042,39.0170288,47.0888062,52.4761963   c9.9162598,6.7612915,20.4945679,14.055481,32.4260864,16.4905396c13.7390137,2.8039551,29.131958,2.0182495,43.142334,2.819519   c59.6721191,3.4124756,119.5671997-0.0958252,178.2939453-11.0563965   c-0.0238647,10.5546265-17.5230713,13.4129639-25.1513672,15.2402954   c-12.6842651,3.0385132-25.6739502,5.0786743-38.5737305,6.953186   c-26.3966064,3.8359375-52.9973145,6.0629272-79.6181641,7.6026001   c-96.2353516,5.56604-192.6610718,4.6258545-289.0025635,3.4552002   c-49.144104-0.5970459-98.3146362-1.7346191-147.331604-5.5131836   c-24.0480957-1.8538208-48.1029053-4.2420044-71.9736938-7.7283325   c-10.6844482-1.5604858-51.7168579-4.4678955-51.37854-19.9141846c5.1645508-1.8253174,10.1889038,1.2560425,15.0821533,2.4790039   c7.0805054,1.7695312,14.5979004,2.5365601,21.8208008,3.5303345c13.1013794,1.8026733,26.2786255,3.0518799,39.4725342,3.9337158   c27.3105469,1.8253174,54.7295532,2.2230225,82.0943604,2.1605225c49.6052856-0.1130981,99.187561-2.4793091,148.630188-6.4252319   c10.559021-0.8427734,22.4907837,0.3082275,30.9140625-6.9506226c7.6714478-6.6110229,14.5334473-14.8482666,20.7503662-22.8065186   c12.5482178-16.0629272,19.7963867-35.732605,34.7901611-49.8469849   c30.9364624-29.1220703,79.9586792-35.2928467,119.8963013-43.0064087   c22.8312988-4.4096069,45.7445679-8.1294556,68.9506226-9.8759155c13.0621338-0.9829712,26.0946655-0.6281738,39.1471558-1.2228394   c8.1685791-0.3721313,15.1112061-3.2070312,17.5065918-11.7476196c-3.163147-10.0777588-12.3509521-5.9384155-18.6022339-8.1327515   c-1.6506958-1.5203247,1.2771606-3.9418335-2.5036621-5.7218628c-3.3314819,0-7.9267578,0-12.4388428,0   c-0.4397583-2.5993042,2.1224976-4.6903076-0.289856-6.6801758c-9.2818604-2.7706299-30.5960693,2.2088013-36.4324341,8.7623291   c4.8271484,4.553833,11.7838135,2.442688,17.8963013,5.5962524c-6.4908447,3.5834351-12.2619629,6.890564-20.0164795,8.6585083   c-8.8432007-12.9142456-24.2653198-21.4470825-40.0157471-21.3598022   c-17.1321411,0.0949097-31.4867554,10.9778442-47.8134766,14.8262329   c-16.3000488,3.84198-32.0592651,9.1616821-47.3149414,16.0888062   c-7.7487793,3.5185547-15.2776489,8.5223389-23.3884277,11.0728149   c-7.7166748,2.4265137-16.2681274,2.2417603-24.2774658,2.7122192   c-36.4106445,2.1383667-70.5931396,13.9237671-103.875061,28.3515015   c-32.2678833,13.9880981-62.8390503,31.4469604-94.9259644,45.7855225   c-28.503418,12.7372437-65.7956543,29.2060547-97.4782104,20.3407593   c15.5588989-4.3059082,31.7175903-5.2086792,47.2632446-10.1066895   c16.0775757-5.0656128,31.430603-12.145874,46.1995239-20.2281494   c31.1803589-17.0632935,59.8150024-39.2303467,93.7357178-50.8818359   c-44.7494507,0.8443604-92.9518433,10.2959595-133.213501,30.3450928   c21.4606934-18.4085693,46.9213257-28.605835,74.4561768-36.5238037   c-26.2301636-9.3672485-58.090271-13.2039795-85.8562012-14.0498657   c-16.1514893-0.4920654-60.9699707,1.3560181-54.2254639-27.5266113   c-43.4702148,1.2723999-97.7285156,1.9553223-118.3726196,48.3452148   c-7.1681519,16.1077271-7.7094116,34.5220947-1.9216919,51.1377563   c7.7424316,22.2276001,23.4514771,33.4265747,41.7791748,46.5327759   c-9.9016113,9.2034912-31.6855469,10.6563721-44.2123413,14.1299438   c-6.1849365,1.7149658-29.7869263,5.9014893-28.7927246,15.7505493   c1.0372314,10.2749023,30.2288818,12.6936646,37.3590698,13.9540405   c17.2070312,3.041687,34.6646729,4.7328491,52.0299683,6.5874634   c128.4353027,13.7167969,258.097229,16.8425293,387.1856689,15.6185913   c64.4680176-0.6112061,128.9314575-2.8140869,193.2540283-7.2435303   c31.7059937-2.1834106,63.3787231-4.9030151,94.9871826-8.2143555c16.3091431-1.7084961,32.6085815-3.6544189,48.7539673-6.5587158   c11.5062256-2.0698242,31.9026489-3.2344971,39.78479-13.4199219   C924.9645996,936.3081665,904.1443481,932.7796631,895.3831177,930.2206421z" style="fill: rgb(255, 255, 255);"/>
    <path d="M537.2453003,733.2091064c11.5682983-4.0671387,21.3505859-4.1994629,30.8190308-3.307251   c27.178772-26.0857544,32.0361938-59.8461914,34.819397-95.7676392   c3.1349487-40.4603882,2.2255249-81.0831299,2.1044312-121.6231689   c-11.3775635,43.3649292-19.541748,86.7174072-63.2957764,108.786499   c-45.7269897,23.0641479-95.3973389,24.4033813-145.2269897,19.449585   c-3.0738525,13.9280396-5.9979858,27.1779785-8.8800659,40.2369995   c17.503418,18.4752197,33.8729248,37.2155762,52.6328735,53.4029541   c16.5509033-4.2808228,32.6643677-5.8001709,48.3427124,0.935791c3.4730225-2.8060913,6.4092407-5.1784058,9.1880493-7.4235229   c5.1005249,0.1254883,8.7958374,4.0845947,13.1738892,3.2775269c3.0551758,2.166626,3.9338989,6.111145,7.5249634,6.2568359   c26.7284546-31.4686279,57.6351929-59.8071899,69.0394897-101.5440063   C586.789856,675.9104614,572.8972168,709.098877,537.2453003,733.2091064z" style="fill: rgb(255, 255, 255);"/>
    <path d="M574.3578491,368.3462524c-4.3422852,4.0822144-5.7938843,12.6148071-7.2833862,18.02771   c-2.8862305,10.4890747-5.1942139,21.1323242-7.296814,31.8025513   c-6.9116211,35.0741577-10.3643799,72.4933472-26.4483032,104.9440308   c-27.390625,55.2628784-95.0938721,69.31427-151.6168213,58.9453125   c-1.3230591,15.2208862-2.9315186,38.1119995,13.1176147,46.3917236   c16.3887329,8.454895,41.3196411,7.7991333,59.2747192,6.6022949   c34.1791992-2.2784424,67.7333374-13.7351685,92.6502075-37.8707275   c56.6572876-54.8807373,55.9515991-147.6212769,65.6602173-220.3364868   C604.8036499,370.078064,583.8165283,359.4537964,574.3578491,368.3462524z" style="fill: rgb(255, 255, 255);"/>
    <path d="M497.3710327,148.9431152c17.8078003-10.805603,37.2252808-20.3449097,57.8664551-10.9524536   c16.2926025,7.4136353,24.8376465,23.480835,31.3190308,39.3000488   c19.109314-41.2507324-9.1816406-80.9111328-51.6503906-87.5247192   c10.7750854-15.8961792,13.8649292-35.7891235,2.3939209-52.1946411   c-9.8061523-14.0246582-26.5377197-21.9393311-43.5882568-20.7940674   c-35.6901245,2.3973999-60.015686,44.7977295-33.5211182,73.121582   c-51.3843994,8.1364136-69.1953735,55.4832764-52.4241333,84.477478   C423.4491577,135.7182007,454.4655762,120.4821777,497.3710327,148.9431152z" style="fill: rgb(255, 255, 255);"/>
    <path d="M252.4786987,788.3596802c22.4135132,2.2723389,44.9436035,1.0288086,67.4752197,4.1391602   c45.7224121,6.3115845,90.5512695,17.8026123,137.0811157,13.1439209   c-26.3696289-6.5968628-50.3639526-19.5892944-75.2566528-30.0999146   c-23.1553345-9.7770386-47.9715576-13.2849731-68.0723877,4.9486694   c-7.1589355-4.0612183-14.7804565-6.5040894-22.7286987-12.6920166c4.5377808-0.2700806,15.6723633,0.8605347,18.5165405-3.5023804   c-6.0789185-7.1774902-35.5629272-14.8910522-39.3208008-9.7924194c0.1668701,1.7249146,0.3770142,3.8970947,0.5770874,5.9645996   c-3.9848022,0.5758057-12.9891357-1.836792-15.8869019,2.0275879c-1.7692261,2.359375,2.2901611,3.2687988,0.5028076,4.956543   c-5.8052979,0.2735596-18.3121948-0.4749146-19.8582764,7.2573242   C233.817749,783.1630249,246.3918457,787.7425537,252.4786987,788.3596802z" style="fill: rgb(255, 255, 255);"/>
    <path d="M510.5162964,915.2381592c31.7556763,10.1219482,63.5083008,13.0717773,95.8982544,13.4549561   c-28.4187012-10.3567505-53.6845703-25.0061035-70.8568726-51.5496216   C528.8502808,891.2262573,521.5964966,903.6751709,510.5162964,915.2381592z" style="fill: rgb(255, 255, 255);"/>
  </g>
</svg>